<svg width="680" height="530" viewBox="0 0 680 530" xmlns="http://www.w3.org/2000/svg">
<rect x="0" y="0" width="680" height="530" fill="#f9fafb"/>

<rect x="40" y="40" width="180" height="210" rx="12" fill="#ffffff" stroke="#e5e7eb"/>
<g transform="translate(130,120)">
  <rect x="-32" y="-32" width="64" height="64" rx="16" fill="#111827"/>
  <g fill="none" stroke="#ffffff" stroke-width="5" stroke-linecap="round" stroke-linejoin="round">
    <path d="M 4 -18 L 4 6 Q 4 18 -6 18 Q -15 18 -15 9 L -15 5"/>
    <line x1="-8" y1="-8" x2="15" y2="-8"/>
  </g>
</g>
<text x="130" y="205" text-anchor="middle" font-family="Arial, Helvetica, sans-serif" font-size="14" font-weight="600" fill="#111827">A. Kafelek t-haczyk</text>
<text x="130" y="226" text-anchor="middle" font-family="Arial, Helvetica, sans-serif" font-size="12" fill="#6b7280">wersja app icon / favicon</text>

<rect x="250" y="40" width="180" height="210" rx="12" fill="#ffffff" stroke="#e5e7eb"/>
<g transform="translate(340,115)">
  <path d="M 0 -38 L 0 4 Q 0 24 18 24 Q 34 24 34 8 L 34 0" fill="none" stroke="#111827" stroke-width="6" stroke-linecap="round" stroke-linejoin="round"/>
  <path d="M 34 0 L 28 8" fill="none" stroke="#111827" stroke-width="6" stroke-linecap="round"/>
  <rect x="-52" y="28" width="76" height="30" rx="15" fill="#111827"/>
  <text x="-14" y="48" text-anchor="middle" font-family="Arial, Helvetica, sans-serif" font-size="14" font-weight="600" fill="#ffffff">15:30</text>
</g>
<text x="340" y="205" text-anchor="middle" font-family="Arial, Helvetica, sans-serif" font-size="14" font-weight="600" fill="#111827">B. Haczyk lowi termin</text>
<text x="340" y="226" text-anchor="middle" font-family="Arial, Helvetica, sans-serif" font-size="12" fill="#6b7280">chip godziny na haczyku</text>

<rect x="460" y="40" width="180" height="210" rx="12" fill="#ffffff" stroke="#e5e7eb"/>
<g transform="translate(550,125)" fill="none" stroke="#111827" stroke-width="6" stroke-linecap="round" stroke-linejoin="round">
  <path d="M -24 0 L -8 16 L 14 -14 Q 20 -22 28 -17 Q 34 -13 30 -6 Q 27 -1 21 -2"/>
</g>
<text x="550" y="205" text-anchor="middle" font-family="Arial, Helvetica, sans-serif" font-size="14" font-weight="600" fill="#111827">C. Ptaszek-haczyk</text>
<text x="550" y="226" text-anchor="middle" font-family="Arial, Helvetica, sans-serif" font-size="12" fill="#6b7280">check przechodzi w haczyk</text>

<rect x="40" y="280" width="180" height="210" rx="12" fill="#ffffff" stroke="#e5e7eb"/>
<g transform="translate(130,365)" fill="none" stroke="#111827" stroke-width="7" stroke-linecap="round" stroke-linejoin="round">
  <path d="M 26 -20 Q 16 -32 0 -32 Q -30 -32 -30 0 Q -30 32 0 32 Q 16 32 26 20"/>
  <path d="M 26 20 L 16 16"/>
</g>
<text x="130" y="445" text-anchor="middle" font-family="Arial, Helvetica, sans-serif" font-size="14" font-weight="600" fill="#111827">D. Litera c-haczyk</text>
<text x="130" y="466" text-anchor="middle" font-family="Arial, Helvetica, sans-serif" font-size="12" fill="#6b7280">c jak catch, koncowka jak grot</text>

<rect x="250" y="280" width="180" height="210" rx="12" fill="#ffffff" stroke="#e5e7eb"/>
<g transform="translate(340,365)">
  <circle cx="0" cy="0" r="42" fill="none" stroke="#111827" stroke-width="4"/>
  <g fill="none" stroke="#111827" stroke-width="5.5" stroke-linecap="round" stroke-linejoin="round">
    <path d="M 2 -22 L 2 6 Q 2 20 -9 20 Q -18 20 -18 10 L -18 6"/>
    <line x1="-11" y1="-9" x2="16" y2="-9"/>
  </g>
</g>
<text x="340" y="445" text-anchor="middle" font-family="Arial, Helvetica, sans-serif" font-size="14" font-weight="600" fill="#111827">E. Stempel</text>
<text x="340" y="466" text-anchor="middle" font-family="Arial, Helvetica, sans-serif" font-size="12" fill="#6b7280">t-haczyk w okregu, wersja badge</text>

<rect x="460" y="280" width="180" height="210" rx="12" fill="#ffffff" stroke="#e5e7eb"/>
<g transform="translate(550,360)">
  <path d="M 0 -34 L 0 2 Q 0 22 18 22 Q 34 22 34 6 L 34 -2" fill="none" stroke="#111827" stroke-width="6" stroke-linecap="round" stroke-linejoin="round"/>
  <path d="M 34 -2 L 27 5" fill="none" stroke="#111827" stroke-width="6" stroke-linecap="round"/>
  <circle cx="34" cy="-14" r="9" fill="#111827"/>
</g>
<text x="550" y="445" text-anchor="middle" font-family="Arial, Helvetica, sans-serif" font-size="14" font-weight="600" fill="#111827">F. Haczyk + kropka</text>
<text x="550" y="466" text-anchor="middle" font-family="Arial, Helvetica, sans-serif" font-size="12" fill="#6b7280">zlapany wolny slot</text>
</svg>
