<svg width="940" height="740" viewBox="0 0 940 740" xmlns="http://www.w3.org/2000/svg">
<rect x="0" y="0" width="940" height="740" fill="#f9fafb"/>

<rect x="20" y="30" width="900" height="105" rx="12" fill="#ffffff" stroke="#e5e7eb"/>
<text x="40" y="55" font-family="Arial" font-size="12" fill="#6b7280">A. Litera h przechodzi w haczyk — akcent wbudowany w napis</text>
<text x="40" y="112" font-family="Arial, Helvetica, sans-serif" font-size="54" font-weight="700" fill="#9ca3af">term</text>
<text x="160" y="112" font-family="Arial, Helvetica, sans-serif" font-size="54" font-weight="700" fill="#111827">catch</text>
<path d="M 296 112 L 296 124 Q 296 136 283 136 Q 272 136 272 126" fill="none" stroke="#111827" stroke-width="5.5" stroke-linecap="round"/>

<rect x="20" y="145" width="900" height="105" rx="12" fill="#ffffff" stroke="#e5e7eb"/>
<text x="40" y="170" font-family="Arial" font-size="12" fill="#6b7280">B. Podkreslenie konczace sie ptaszkiem — nie fala, tylko odhaczenie</text>
<text x="40" y="227" font-family="Arial, Helvetica, sans-serif" font-size="54" font-weight="700" fill="#9ca3af">term</text>
<text x="160" y="227" font-family="Arial, Helvetica, sans-serif" font-size="54" font-weight="700" fill="#111827">catch</text>
<path d="M 162 243 L 268 243 L 296 217" fill="none" stroke="#111827" stroke-width="7" stroke-linecap="round" stroke-linejoin="round"/>

<rect x="20" y="260" width="900" height="105" rx="12" fill="#ffffff" stroke="#e5e7eb"/>
<text x="40" y="285" font-family="Arial" font-size="12" fill="#6b7280">C. Zakreslacz — catch podswietlone jak zaznaczony slot w kalendarzu</text>
<text x="40" y="342" font-family="Arial, Helvetica, sans-serif" font-size="54" font-weight="700" fill="#9ca3af">term</text>
<rect x="154" y="296" width="156" height="58" rx="10" fill="#e5e7eb"/>
<text x="160" y="342" font-family="Arial, Helvetica, sans-serif" font-size="54" font-weight="700" fill="#111827">catch</text>

<rect x="20" y="375" width="900" height="105" rx="12" fill="#ffffff" stroke="#e5e7eb"/>
<text x="40" y="400" font-family="Arial" font-size="12" fill="#6b7280">D. Nawiasy slotu — [catch] jak wolne okienko w grafiku</text>
<text x="40" y="457" font-family="Arial, Helvetica, sans-serif" font-size="54" font-weight="700" fill="#9ca3af">term</text>
<path d="M 176 411 L 163 411 L 163 469 L 176 469" fill="none" stroke="#111827" stroke-width="6" stroke-linecap="round"/>
<text x="186" y="457" font-family="Arial, Helvetica, sans-serif" font-size="54" font-weight="700" fill="#111827">catch</text>
<path d="M 333 411 L 346 411 L 346 469 L 333 469" fill="none" stroke="#111827" stroke-width="6" stroke-linecap="round"/>

<rect x="20" y="490" width="900" height="105" rx="12" fill="#ffffff" stroke="#e5e7eb"/>
<text x="40" y="515" font-family="Arial" font-size="12" fill="#6b7280">E. Haczyk z kropka na koncu — zlapany slot jako sufiks</text>
<text x="40" y="572" font-family="Arial, Helvetica, sans-serif" font-size="54" font-weight="700" fill="#9ca3af">term</text>
<text x="160" y="572" font-family="Arial, Helvetica, sans-serif" font-size="54" font-weight="700" fill="#111827">catch</text>
<path d="M 322 528 L 322 556 Q 322 570 335 570 Q 346 570 346 559" fill="none" stroke="#111827" stroke-width="5" stroke-linecap="round"/>
<circle cx="346" cy="545" r="6" fill="#111827"/>

<rect x="20" y="605" width="900" height="105" rx="12" fill="#ffffff" stroke="#e5e7eb"/>
<text x="40" y="630" font-family="Arial" font-size="12" fill="#6b7280">F. Ostry tick w prawo w gore — energia, zlapane, koniec tematu</text>
<text x="40" y="687" font-family="Arial, Helvetica, sans-serif" font-size="54" font-weight="700" fill="#9ca3af">term</text>
<text x="160" y="687" font-family="Arial, Helvetica, sans-serif" font-size="54" font-weight="700" fill="#111827">catch</text>
<path d="M 316 676 L 330 690 L 358 650" fill="none" stroke="#111827" stroke-width="8" stroke-linecap="round" stroke-linejoin="round"/>
</svg>
