<svg width="680" height="530" viewBox="0 0 680 530" xmlns="http://www.w3.org/2000/svg">
<rect x="0" y="0" width="680" height="530" fill="#f9fafb"/>

<rect x="40" y="40" width="180" height="210" rx="12" fill="#ffffff" stroke="#e5e7eb"/>
<g transform="translate(130,125)">
  <rect x="-32" y="-32" width="64" height="64" rx="16" fill="#111827"/>
  <text x="0" y="13" text-anchor="middle" font-family="Arial, Helvetica, sans-serif" font-size="36" font-weight="600" fill="#ffffff">T</text>
</g>
<text x="130" y="205" text-anchor="middle" font-family="Arial, Helvetica, sans-serif" font-size="14" font-weight="600" fill="#111827">1. Kafelek T</text>
<text x="130" y="226" text-anchor="middle" font-family="Arial, Helvetica, sans-serif" font-size="12" fill="#6b7280">juz zyje w aplikacji</text>

<rect x="250" y="40" width="180" height="210" rx="12" fill="#ffffff" stroke="#e5e7eb"/>
<g transform="translate(340,125)" fill="none" stroke="#111827" stroke-linecap="round" stroke-linejoin="round">
  <rect x="-30" y="-22" width="60" height="52" rx="9" stroke-width="4"/>
  <line x1="-14" y1="-32" x2="-14" y2="-16" stroke-width="4"/>
  <line x1="14" y1="-32" x2="14" y2="-16" stroke-width="4"/>
  <path d="M -12 8 L -3 17 L 15 -3" stroke-width="5"/>
</g>
<text x="340" y="205" text-anchor="middle" font-family="Arial, Helvetica, sans-serif" font-size="14" font-weight="600" fill="#111827">2. Kalendarz + ptaszek</text>
<text x="340" y="226" text-anchor="middle" font-family="Arial, Helvetica, sans-serif" font-size="12" fill="#6b7280">zlapany termin, doslownie</text>

<rect x="460" y="40" width="180" height="210" rx="12" fill="#ffffff" stroke="#e5e7eb"/>
<g transform="translate(550,125)">
  <rect x="-52" y="-20" width="104" height="40" rx="20" fill="#111827"/>
  <text x="-12" y="6" text-anchor="middle" font-family="Arial, Helvetica, sans-serif" font-size="16" font-weight="600" fill="#ffffff">15:30</text>
  <path d="M 24 0 l 6 6 l 11 -12" fill="none" stroke="#ffffff" stroke-width="3.5" stroke-linecap="round" stroke-linejoin="round"/>
</g>
<text x="550" y="205" text-anchor="middle" font-family="Arial, Helvetica, sans-serif" font-size="14" font-weight="600" fill="#111827">3. Chip terminu</text>
<text x="550" y="226" text-anchor="middle" font-family="Arial, Helvetica, sans-serif" font-size="12" fill="#6b7280">godzina zaklepana</text>

<rect x="40" y="280" width="180" height="210" rx="12" fill="#ffffff" stroke="#e5e7eb"/>
<g transform="translate(130,365)" fill="none" stroke="#111827" stroke-width="6.5" stroke-linecap="round" stroke-linejoin="round">
  <path d="M -4 -30 L -4 12 Q -4 30 12 30 Q 25 30 25 17"/>
  <line x1="-22" y1="-12" x2="13" y2="-12"/>
</g>
<text x="130" y="445" text-anchor="middle" font-family="Arial, Helvetica, sans-serif" font-size="14" font-weight="600" fill="#111827">4. Litera t-haczyk</text>
<text x="130" y="466" text-anchor="middle" font-family="Arial, Helvetica, sans-serif" font-size="12" fill="#6b7280">catch = lapiesz termin</text>

<rect x="250" y="280" width="180" height="210" rx="12" fill="#ffffff" stroke="#e5e7eb"/>
<g transform="translate(340,365)" fill="none" stroke="#111827" stroke-linecap="round" stroke-linejoin="round">
  <circle cx="0" cy="0" r="31" stroke-width="4"/>
  <line x1="0" y1="-31" x2="0" y2="-24" stroke-width="3"/>
  <path d="M -13 2 L -4 11 L 15 -9" stroke-width="5"/>
</g>
<text x="340" y="445" text-anchor="middle" font-family="Arial, Helvetica, sans-serif" font-size="14" font-weight="600" fill="#111827">5. Zegar z ptaszkiem</text>
<text x="340" y="466" text-anchor="middle" font-family="Arial, Helvetica, sans-serif" font-size="12" fill="#6b7280">czas potwierdzony</text>

<rect x="460" y="280" width="180" height="210" rx="12" fill="#ffffff" stroke="#e5e7eb"/>
<text x="550" y="366" text-anchor="middle" font-family="Arial, Helvetica, sans-serif" font-size="26"><tspan fill="#9ca3af" font-weight="400">term</tspan><tspan fill="#111827" font-weight="700">catch</tspan></text>
<text x="550" y="445" text-anchor="middle" font-family="Arial, Helvetica, sans-serif" font-size="14" font-weight="600" fill="#111827">6. Wordmark dwutonowy</text>
<text x="550" y="466" text-anchor="middle" font-family="Arial, Helvetica, sans-serif" font-size="12" fill="#6b7280">term cichy, catch mocny</text>
</svg>
