<svg width="940" height="1085" viewBox="0 0 940 1085" xmlns="http://www.w3.org/2000/svg">
<rect x="0" y="0" width="940" height="1085" fill="#f9fafb"/>

<rect x="20" y="30" width="900" height="105" rx="12" fill="#ffffff" stroke="#e5e7eb"/>
<text x="40" y="55" font-family="Arial" font-size="12" fill="#6b7280">1. Klasyk dwutonowy — spokojna baza</text>
<text x="40" y="112" font-family="Arial, Helvetica, sans-serif" font-size="54" font-weight="700" fill="#9ca3af">TERM</text>
<text x="199" y="112" font-family="Arial, Helvetica, sans-serif" font-size="54" font-weight="700" fill="#111827">CATCH</text>

<rect x="20" y="145" width="900" height="105" rx="12" fill="#ffffff" stroke="#e5e7eb"/>
<text x="40" y="170" font-family="Arial" font-size="12" fill="#6b7280">2. Italic speed — pochylenie = ruch</text>
<text x="40" y="227" font-family="Arial, Helvetica, sans-serif" font-size="54" font-weight="700" font-style="italic" fill="#9ca3af">TERM</text>
<text x="203" y="227" font-family="Arial, Helvetica, sans-serif" font-size="54" font-weight="700" font-style="italic" fill="#111827">CATCH</text>

<rect x="20" y="260" width="900" height="105" rx="12" fill="#ffffff" stroke="#e5e7eb"/>
<text x="40" y="285" font-family="Arial" font-size="12" fill="#6b7280">3. Condensed athletic — waskie, wysokie, sportowe</text>
<g transform="translate(40,344) scale(0.76,1)">
<text x="0" y="0" font-family="Arial, Helvetica, sans-serif" font-size="62" font-weight="700" fill="#9ca3af">TERM</text>
<text x="182" y="0" font-family="Arial, Helvetica, sans-serif" font-size="62" font-weight="700" fill="#111827">CATCH</text>
</g>

<rect x="20" y="375" width="900" height="105" rx="12" fill="#ffffff" stroke="#e5e7eb"/>
<text x="40" y="400" font-family="Arial" font-size="12" fill="#6b7280">4. Kontur + pelnia — term szkic, catch cios</text>
<text x="40" y="457" font-family="Arial, Helvetica, sans-serif" font-size="54" font-weight="700" fill="none" stroke="#111827" stroke-width="1.6">TERM</text>
<text x="199" y="457" font-family="Arial, Helvetica, sans-serif" font-size="54" font-weight="700" fill="#111827">CATCH</text>

<rect x="20" y="490" width="900" height="105" rx="12" fill="#ffffff" stroke="#e5e7eb"/>
<text x="40" y="515" font-family="Arial" font-size="12" fill="#6b7280">5. Plakietka — bialy napis na graficie</text>
<rect x="40" y="525" width="420" height="60" rx="12" fill="#111827"/>
<text x="64" y="569" font-family="Arial, Helvetica, sans-serif" font-size="42" font-weight="700" fill="#9ca3af">TERM</text>
<text x="188" y="569" font-family="Arial, Helvetica, sans-serif" font-size="42" font-weight="700" fill="#ffffff">CATCH</text>

<rect x="20" y="605" width="900" height="105" rx="12" fill="#ffffff" stroke="#e5e7eb"/>
<text x="40" y="630" font-family="Arial" font-size="12" fill="#6b7280">6. Tablica skosna — badge jak z koszulki druzynowej</text>
<polygon points="66,640 486,640 462,702 42,702" fill="#111827"/>
<text x="86" y="686" font-family="Arial, Helvetica, sans-serif" font-size="40" font-weight="700" font-style="italic" fill="#9ca3af">TERM</text>
<text x="204" y="686" font-family="Arial, Helvetica, sans-serif" font-size="40" font-weight="700" font-style="italic" fill="#ffffff">CATCH</text>

<rect x="20" y="720" width="900" height="105" rx="12" fill="#ffffff" stroke="#e5e7eb"/>
<text x="40" y="745" font-family="Arial" font-size="12" fill="#6b7280">7. Slash — ostre ciecie miedzy slowami</text>
<text x="40" y="802" font-family="Arial, Helvetica, sans-serif" font-size="54" font-weight="700" fill="#9ca3af">TERM</text>
<polygon points="219,748 237,748 205,806 187,806" fill="#111827"/>
<text x="245" y="802" font-family="Arial, Helvetica, sans-serif" font-size="54" font-weight="700" fill="#111827">CATCH</text>

<rect x="20" y="835" width="900" height="105" rx="12" fill="#ffffff" stroke="#e5e7eb"/>
<text x="40" y="860" font-family="Arial" font-size="12" fill="#6b7280">8. Swoosh — dynamiczne podkreslenie catch</text>
<text x="40" y="912" font-family="Arial, Helvetica, sans-serif" font-size="54" font-weight="700" fill="#9ca3af">term</text>
<text x="160" y="912" font-family="Arial, Helvetica, sans-serif" font-size="54" font-weight="700" fill="#111827">catch</text>
<path d="M 162 926 Q 235 940 304 920" fill="none" stroke="#111827" stroke-width="7" stroke-linecap="round"/>

<rect x="20" y="950" width="900" height="105" rx="12" fill="#ffffff" stroke="#e5e7eb"/>
<text x="40" y="975" font-family="Arial" font-size="12" fill="#6b7280">9. Rozstrzelony premium — spokojny luksus</text>
<text x="40" y="1030" font-family="Arial, Helvetica, sans-serif" font-size="44" font-weight="400" letter-spacing="12" fill="#9ca3af">TERM</text>
<text x="225" y="1030" font-family="Arial, Helvetica, sans-serif" font-size="44" font-weight="700" letter-spacing="12" fill="#111827">CATCH</text>
</svg>
